<svg xmlns="http://www.w3.org/2000/svg" fill-rule="evenodd" clip-rule="evenodd" image-rendering="optimizeQuality" shape-rendering="geometricPrecision" text-rendering="geometricPrecision" viewBox="0 0 36000 6204">
  <defs>
    <style>
      .fil0{fill:#fff;fill-rule:nonzero}
    </style>
  </defs>
  <g id="facon-long-white">
    <path d="M12759 1317c150-18 301-11 452-12 130 2 260 23 390 21 527 31 1052 122 1555 290 3 299 4 598-1 897-131-36-261-78-393-111-350-85-707-140-1066-165-192-24-385-11-578-14-167 2-334-3-502 1-247 18-356 39-601 80-3 214-6 429 1 642 265-39 395 4 661-27 134-14 268-7 402-8 140 1 281-6 421 8 181 21 363 8 544 10 124-1 246 24 370 20 130-4 260 19 390 20 117 2 234 19 351 23 2 299 2 598-1 897-234 29-469 30-703 51-115 6-230-3-344 12-126 15-253 10-379 10h-946c-116 0-232 5-347-7-185-25-235 1-420-34-9 511 1 1023-6 1534-226-22-594-20-818-67-66-14-128-41-189-70-3-988 0-1976 0-2964 1-247-2-494 3-741 453-156 927-239 1402-279 117-15 235-8 352-19zm4968 13c162 1 322-25 483-22 121 1 242-4 363 9 83 9 166 10 250 13 521 34 1040 122 1537 286 4 156 2 312 2 469 0 958-1 1916-1 2874-1 93 8 186-6 279-15 65-88 83-142 99-242 60-632 55-879 78-6-499 2-998-3-1497-136-2-132 24-268 21-427-2-853-2-1280-1-124 1-246-24-370-20-111 3-83-4-193-21-8 505 1 1011-6 1517-232-22-605-19-833-69-61-13-117-38-173-65-4-1002 0-2005 0-3007 1-220-3-439 3-659 489-168 1004-248 1518-283zm-78 879c-204 14-199 34-401 64-4 208-4 415 0 623 274-40 345 3 620-27 196-17 392-3 588-8 160-5 319 24 480 20 191 2 175-13 364 16 5-208 3-416 2-624-267-37-327-63-596-77-262-1-525 1-787-1-90-1-181 5-270 14zm5230-873c124-8 248-5 371-20 167-8 335-9 503 0 123 15 248 11 371 20 496 41 993 114 1465 276 5 289 5 578-1 867-461-145-940-229-1422-264-119-12-238-20-357-17-250 2-501-2-751 1-256 16-374 37-627 77-5 245-1 490-3 735 1 493-3 985 1 1478 188 37 240 50 430 68 113 10 226 4 339 17 122 14 244 9 366 10 163 4 325-23 489-21 520-34 1039-112 1535-273 3 289 2 579 0 868-181 66-369 110-557 150-346 74-698 115-1051 132-195 22-390 9-585 12-132 2-264 1-396-14-436-21-869-83-1292-192-100-25-197-57-297-82-6-126-4-253-4-379 0-924 1-1848 1-2772 0-134-1-269 3-403 472-161 969-233 1466-274zm5273-2c143 2 285-23 428-20 149 0 299-3 448 14 412 11 823 62 1226 150 168 35 332 83 494 138 5 202 1 404 2 606-1 980 0 1960-2 2940-455 155-933 230-1411 271-148 5-295 27-444 24-161-2-322-1-483-1-112 0-223-17-334-20-479-30-954-115-1413-253-22-9-47-15-62-33-8-33-9-66-9-100 5-1145-2-2291 5-3436 503-161 1028-249 1555-279zm-528 943c-1 738-4 1477 0 2215 191 37 247 51 440 69 101 8 202 3 302 14 76 8 153 12 230 11 127-1 255 4 381-10 106-12 212-7 319-15 193-17 249-34 440-68 4-738 2-1476 2-2214-258-37-379-63-639-77-279-1-557-1-836-1-260 13-520 40-778 76h139zm5561-926c157-19 315-11 472-30 167-7 335-8 502 1 145 18 292 10 438 28 475 40 948 125 1401 278 5 234 1 469 2 703-2 1001 2 2002-3 3003-156 82-334 94-506 110-124 5-387 17-511 25-5-1051 1-2103-1-3154-336-44-534-89-874-80-213 1-426-2-639 0-259 15-378 42-635 78-14 158-7 317-8 476-2 893 2 1787-3 2680-245-25-633-19-874-78-50-15-106-29-142-70-18-91-7-184-9-276 1-975 1-1950 2-2925 0-164-2-329 3-493 449-148 915-236 1385-275z" class="fil0"/>
    <path fill="#f1ab41" fill-rule="nonzero" d="M4875 649c18-217 26-434 60-649 28 314 39 630 77 943 27 208 29 417 46 626 21 251 35 502 64 752 22-2 44-4 66-7 26-194 71-384 90-578 23-261 87-516 122-775 57-309 96-620 144-930 21 183-13 365-9 548 3 181-25 361-25 543-1 205-25 409-23 614 3 207-17 413-17 620l69 15c39-190 93-376 149-562 66-250 146-495 214-744 90-295 157-596 252-889-24 335-121 659-150 993-14 150-30 299-60 447-37 186-46 376-88 561-21 93-29 188-27 283 77-95 124-211 167-326 250-590 498-1182 746-1773-57 270-135 535-210 800-78 243-122 495-198 738-49 154-79 313-125 469-21 74-30 152-42 228 45-65 86-132 125-201 243-417 480-839 723-1257 98-159 180-328 278-487-55 171-135 331-200 498-148 359-292 719-440 1078-65 170-151 331-197 508 92-80 167-177 238-277 281-369 564-738 846-1107 75-102 149-205 231-300-124 229-269 446-401 670-189 302-369 609-555 912-48 77-94 155-136 236 61-46 121-94 178-146 477-449 963-889 1441-1335-363 434-728 865-1089 1300-101 123-208 242-300 373 60-31 119-64 176-101 544-373 1093-737 1637-1109-400 355-799 712-1201 1066-131 124-278 230-391 372 488-222 971-456 1458-683 162-71 318-156 479-231-61 53-125 105-192 150-370 253-729 521-1096 778-134 97-271 187-399 294 167-36 329-93 491-147 354-122 708-246 1063-365 142-50 283-102 429-139-426 244-861 469-1288 712-156 90-323 161-468 272 202-6 395-72 591-115 408-89 819-159 1226-253 0 13-1 38-1 51-565 201-1122 427-1684 638 95 2 190 11 283 28-300 54-602 101-894 193-269 82-525 205-779 327-196 95-376 219-555 344-189 131-368 277-545 426-66 40-138 72-213 88-28-1-55-2-82-3-75-6-152-22-219-60-118-87-223-191-339-279-252-194-520-364-796-517-278-144-569-263-867-352-254-77-517-109-777-161-52-13-102-35-151-56-281-125-564-244-841-377-240-104-480-209-719-317 233 34 456 114 687 157 196 35 386 98 582 135 248 51 492 116 739 169 2-13 5-40 6-54-587-336-1176-665-1765-997 234 71 467 148 696 236 139 51 283 87 423 136 143 50 285 103 429 148 146 45 289 104 438 137-46-42-93-82-143-119-272-199-550-388-822-587-233-168-472-326-702-498 296 135 578 297 869 443 272 143 548 276 816 427 65 36 135 61 204 86-38-43-77-87-119-127-485-457-963-921-1448-1376 510 342 1015 692 1523 1037 100 73 203 142 314 195-78-121-176-227-268-336-380-455-759-911-1145-1360 447 400 885 812 1329 1216 100 94 197 192 312 268-78-166-186-313-278-469-246-384-476-778-722-1162-55-84-110-169-161-257 120 126 231 262 346 394 377 435 757 867 1135 1301-103-282-255-540-375-814-195-404-389-809-580-1216 103 139 188 291 285 433 79 116 153 235 231 351 179 265 343 539 526 800 68 108 136 217 218 314-65-224-140-443-216-663-79-238-152-477-227-715-82-260-183-514-249-779 180 394 369 783 547 1177 93 209 202 411 289 624 34 88 85 167 138 244-17-368-124-723-187-1084-33-203-72-404-106-607-30-191-86-376-111-567 118 307 194 629 299 940 91 270 163 547 258 816 48 135 88 273 128 410 14 1 43 5 57 6-2-339-52-675-58-1014-3-118-11-235-17-353-16-286-60-571-45-858 54 225 53 460 103 685 51 226 61 459 111 685 57 273 76 551 121 826 23-4 67-12 90-16 2-130 8-260 26-390 53-420 58-844 95-1266z"/>
    <path d="M774 4200c120-5 241-8 361 0 276 23 551 50 825 86 259 52 523 83 777 161 299 89 589 208 867 352 276 153 545 323 796 517 117 88 221 192 339 279-52 33-114 50-171 18-595-261-1207-478-1834-641-412-102-832-171-1254-213-295-39-593-47-887-94 56-157 118-311 180-465zm7928 10c164-20 328-20 492-9 49 160 115 314 171 472-227 28-456 37-683 63-666 68-1336 160-1973 385-444 139-878 309-1309 484-62 29-129 23-194 12l47-47c176-149 355-296 545-426 179-125 359-249 555-344 254-122 510-245 779-327 292-92 594-139 894-193 225-31 450-54 677-69zM524 4856c480 51 960 88 1438 160 539 69 1074 173 1597 326 201 65 406 121 605 193 143 51 297 80 423 172-110 33-226 26-338 7-1079-117-2158-231-3237-347-223-18-444-58-668-64 61-149 114-301 181-447zm8455 45c152-16 304-22 456-43 64 146 117 297 178 444-147 3-292 23-438 40-1128 117-2255 239-3383 359-145 17-294 53-437 2 183-91 377-154 569-220 219-64 434-141 655-193 362-96 727-180 1098-229 433-63 866-124 1302-161zM281 5449c161-1 321 21 481 34 1117 91 2234 185 3350 277 121 13 242 22 364 23-24 37-48 75-71 112-241 6-482 1-723 4-160 4-318-28-477-26-288 2-576 0-864 2-152 2-302-28-455-25-197 1-394 1-591 1-163-1-326 8-488-11-217-27-437-3-655-18 42-124 86-248 129-372zm9062 20c106-12 212-17 318-24 52 124 105 247 141 377-138 7-276 3-414 4-121 0-241 23-362 24-144 3-289-1-433 0-229 3-458-12-685 18-340 14-681-1-1021 6-121 6-241 26-362 23-333-2-665 1-998-2-18-34-37-67-55-100 1290-112 2581-217 3871-326zm-4816 409c97-142 262-234 432-224 27 1 54 2 82 3 147 23 279 120 362 247 59 88 77 196 98 299-65 0-129-1-193-3-23-69-40-144-84-203-121-160-380-172-515-25-60 61-80 150-106 229-66 1-132 1-197 0 24-113 50-231 122-323zM75 5995c164-6 328-4 492-4h3297c167 0 333-2 500 4-17 68-34 137-51 205-187 7-375 3-562 4-1250 0-2500-1-3750 0 26-70 51-139 75-209zm5506-3c1216-2 2432 0 3649-1 217 1 434-4 650 5 24 69 50 138 74 207-1212 2-2423 0-3635 1-234-1-468 3-702-3-13-69-25-139-36-208z" class="fil0"/>
  </g>
</svg>
